<?xml version="1.0" encoding="UTF-8" standalone="no"?>
<svg xmlns="http://www.w3.org/2000/svg" version="1.2" xmlns:xlink="http://www.w3.org/1999/xlink" width="95mm" height="145mm" stroke="black" stroke-width="1mm" fill="none"><line x1="2.5mm" y1="142.5mm" x2="37.5mm" y2="142.5mm"></line><line x1="2.5mm" y1="2.5mm" x2="37.5mm" y2="2.5mm"></line><line x1="2.5mm" y1="2.5mm" x2="2.5mm" y2="142.5mm"></line><line x1="7.5mm" y1="2.5mm" x2="7.5mm" y2="142.5mm"></line><line x1="12.5mm" y1="2.5mm" x2="12.5mm" y2="142.5mm"></line><line x1="17.5mm" y1="2.5mm" x2="17.5mm" y2="142.5mm"></line><line x1="22.5mm" y1="2.5mm" x2="22.5mm" y2="142.5mm"></line><line x1="27.5mm" y1="2.5mm" x2="27.5mm" y2="142.5mm"></line><line x1="32.5mm" y1="2.5mm" x2="32.5mm" y2="142.5mm"></line><line x1="37.5mm" y1="2.5mm" x2="37.5mm" y2="142.5mm"></line><line x1="42.5mm" y1="2.5mm" x2="97.5mm" y2="2.5mm"></line><line x1="42.5mm" y1="12.5mm" x2="97.5mm" y2="12.5mm"></line><line x1="42.5mm" y1="22.5mm" x2="97.5mm" y2="22.5mm"></line><line x1="42.5mm" y1="32.5mm" x2="97.5mm" y2="32.5mm"></line><line x1="42.5mm" y1="42.5mm" x2="97.5mm" y2="42.5mm"></line><line x1="42.5mm" y1="52.5mm" x2="97.5mm" y2="52.5mm"></line><line x1="42.5mm" y1="62.5mm" x2="97.5mm" y2="62.5mm"></line><line x1="42.5mm" y1="72.5mm" x2="97.5mm" y2="72.5mm"></line><line x1="42.5mm" y1="82.5mm" x2="97.5mm" y2="82.5mm"></line><line x1="42.5mm" y1="92.5mm" x2="97.5mm" y2="92.5mm"></line><line x1="42.5mm" y1="102.5mm" x2="97.5mm" y2="102.5mm"></line><line x1="42.5mm" y1="112.5mm" x2="97.5mm" y2="112.5mm"></line><line x1="42.5mm" y1="122.5mm" x2="97.5mm" y2="122.5mm"></line><line x1="42.5mm" y1="132.5mm" x2="97.5mm" y2="132.5mm"></line><line x1="42.5mm" y1="142.5mm" x2="97.5mm" y2="142.5mm"></line><line x1="42.5mm" y1="7.5mm" x2="97.5mm" y2="7.5mm" stroke-width="1/2"></line><line x1="42.5mm" y1="17.5mm" x2="97.5mm" y2="17.5mm" stroke-width="1/2"></line><line x1="42.5mm" y1="27.5mm" x2="97.5mm" y2="27.5mm" stroke-width="1/2"></line><line x1="42.5mm" y1="37.5mm" x2="97.5mm" y2="37.5mm" stroke-width="1/2"></line><line x1="42.5mm" y1="47.5mm" x2="97.5mm" y2="47.5mm" stroke-width="1/2"></line><line x1="42.5mm" y1="57.5mm" x2="97.5mm" y2="57.5mm" stroke-width="1/2"></line><line x1="42.5mm" y1="67.5mm" x2="97.5mm" y2="67.5mm" stroke-width="1/2"></line><line x1="42.5mm" y1="77.5mm" x2="97.5mm" y2="77.5mm" stroke-width="1/2"></line><line x1="42.5mm" y1="87.5mm" x2="97.5mm" y2="87.5mm" stroke-width="1/2"></line><line x1="42.5mm" y1="97.5mm" x2="97.5mm" y2="97.5mm" stroke-width="1/2"></line><line x1="42.5mm" y1="107.5mm" x2="97.5mm" y2="107.5mm" stroke-width="1/2"></line><line x1="42.5mm" y1="117.5mm" x2="97.5mm" y2="117.5mm" stroke-width="1/2"></line><line x1="42.5mm" y1="127.5mm" x2="97.5mm" y2="127.5mm" stroke-width="1/2"></line><line x1="42.5mm" y1="137.5mm" x2="97.5mm" y2="137.5mm" stroke-width="1/2"></line><line x1="0mm" y1="0mm" x2="0mm" y2="145mm" stroke="grey" stroke-width="0.25mm"></line><line x1="0mm" y1="0mm" x2="95mm" y2="0mm" stroke="grey" stroke-width="0.25mm"></line><line x1="95mm" y1="0mm" x2="95mm" y2="145mm" stroke="grey" stroke-width="0.25mm"></line><line x1="0mm" y1="145mm" x2="95mm" y2="145mm" stroke="grey" stroke-width="0.25mm"></line></svg>